<svg xmlns="http://www.w3.org/2000/svg" xmlns:xlink="http://www.w3.org/1999/xlink" width="233" zoomAndPan="magnify" viewBox="0 0 174.75 160.499995" height="214" preserveAspectRatio="xMidYMid meet" version="1.0"><defs><clipPath id="2bfaf5eed9"><path d="M 0.148438 0 L 174.355469 0 L 174.355469 160 L 0.148438 160 Z M 0.148438 0 " clip-rule="nonzero"/></clipPath><clipPath id="33a02cb1fb"><path d="M 0.148438 0.355469 L 173.714844 0.355469 L 173.714844 159.253906 L 0.148438 159.253906 Z M 0.148438 0.355469 " clip-rule="nonzero"/></clipPath><clipPath id="b05d62b7a8"><path d="M 12.164062 24.664062 L 161.699219 24.664062 L 161.699219 135 L 12.164062 135 Z M 12.164062 24.664062 " clip-rule="nonzero"/></clipPath></defs><g clip-path="url(#2bfaf5eed9)"><path fill="#ffffff" d="M 0.148438 0 L 174.355469 0 L 174.355469 160 L 0.148438 160 Z M 0.148438 0 " fill-opacity="1" fill-rule="nonzero"/></g><g clip-path="url(#33a02cb1fb)"><path fill="#1e0c13" d="M 0.148438 0.355469 L 173.714844 0.355469 L 173.714844 159.253906 L 0.148438 159.253906 Z M 0.148438 0.355469 " fill-opacity="1" fill-rule="nonzero"/></g><path fill="#ffffff" d="M 86.929688 120.582031 C 117.070312 120.582031 136.574219 106.398438 136.574219 106.398438 C 136.574219 106.398438 131.257812 118.808594 115.300781 124.128906 L 120.617188 132.996094 C 148.125 132.109375 159.625 113.746094 159.625 113.746094 C 159.625 72.964844 141.699219 39.914062 141.699219 39.914062 C 123.773438 26.234375 106.722656 26.617188 106.722656 26.617188 L 104.660156 28.386719 C 125.820312 34.972656 134.800781 46.117188 134.800781 46.117188 C 121.859375 38.898438 106.433594 33.707031 86.929688 33.707031 C 67.429688 33.707031 52.003906 38.898438 39.058594 46.117188 C 39.058594 46.117188 48.039062 34.972656 69.199219 28.386719 L 67.140625 26.617188 C 67.140625 26.617188 50.085938 26.234375 32.160156 39.914062 C 32.160156 39.914062 14.234375 72.96875 14.234375 113.746094 C 14.234375 113.746094 25.734375 132.109375 53.242188 132.996094 L 58.5625 124.128906 C 42.605469 118.808594 37.285156 106.398438 37.285156 106.398438 C 37.285156 106.398438 56.789062 120.582031 86.929688 120.582031 Z M 86.929688 120.582031 " fill-opacity="1" fill-rule="nonzero"/><path fill="#070605" d="M 122.390625 88.667969 C 122.390625 89.601562 122.304688 90.523438 122.136719 91.4375 C 121.964844 92.347656 121.714844 93.238281 121.378906 94.097656 C 121.042969 94.957031 120.636719 95.773438 120.148438 96.550781 C 119.664062 97.324219 119.113281 98.039062 118.496094 98.699219 C 117.878906 99.355469 117.207031 99.945312 116.480469 100.460938 C 115.753906 100.980469 114.988281 101.417969 114.183594 101.773438 C 113.375 102.128906 112.542969 102.398438 111.6875 102.582031 C 110.832031 102.761719 109.964844 102.851562 109.09375 102.851562 C 108.21875 102.851562 107.355469 102.761719 106.5 102.582031 C 105.644531 102.398438 104.8125 102.128906 104.003906 101.773438 C 103.199219 101.417969 102.433594 100.980469 101.707031 100.460938 C 100.980469 99.945312 100.308594 99.355469 99.691406 98.699219 C 99.074219 98.039062 98.523438 97.324219 98.035156 96.550781 C 97.550781 95.773438 97.140625 94.957031 96.808594 94.097656 C 96.472656 93.238281 96.222656 92.347656 96.050781 91.4375 C 95.882812 90.523438 95.796875 89.601562 95.796875 88.667969 C 95.796875 87.738281 95.882812 86.816406 96.050781 85.902344 C 96.222656 84.988281 96.472656 84.101562 96.808594 83.242188 C 97.140625 82.378906 97.550781 81.5625 98.035156 80.789062 C 98.523438 80.015625 99.074219 79.296875 99.691406 78.640625 C 100.308594 77.980469 100.980469 77.394531 101.707031 76.875 C 102.433594 76.359375 103.199219 75.921875 104.003906 75.566406 C 104.8125 75.207031 105.644531 74.9375 106.5 74.757812 C 107.355469 74.574219 108.21875 74.484375 109.09375 74.484375 C 109.964844 74.484375 110.832031 74.574219 111.6875 74.757812 C 112.542969 74.9375 113.375 75.207031 114.183594 75.566406 C 114.988281 75.921875 115.753906 76.359375 116.480469 76.875 C 117.207031 77.394531 117.878906 77.980469 118.496094 78.640625 C 119.113281 79.296875 119.664062 80.015625 120.148438 80.789062 C 120.636719 81.5625 121.042969 82.378906 121.378906 83.242188 C 121.714844 84.101562 121.964844 84.988281 122.136719 85.902344 C 122.304688 86.816406 122.390625 87.738281 122.390625 88.667969 Z M 122.390625 88.667969 " fill-opacity="1" fill-rule="nonzero"/><path fill="#070605" d="M 78.066406 88.667969 C 78.066406 89.601562 77.980469 90.523438 77.808594 91.4375 C 77.640625 92.347656 77.386719 93.238281 77.054688 94.097656 C 76.71875 94.957031 76.308594 95.773438 75.824219 96.550781 C 75.339844 97.324219 74.789062 98.039062 74.171875 98.699219 C 73.554688 99.355469 72.882812 99.945312 72.15625 100.460938 C 71.429688 100.980469 70.664062 101.417969 69.855469 101.773438 C 69.050781 102.128906 68.21875 102.398438 67.363281 102.582031 C 66.507812 102.761719 65.640625 102.851562 64.769531 102.851562 C 63.894531 102.851562 63.03125 102.761719 62.175781 102.582031 C 61.316406 102.398438 60.484375 102.128906 59.679688 101.773438 C 58.871094 101.417969 58.105469 100.980469 57.378906 100.460938 C 56.65625 99.945312 55.984375 99.355469 55.367188 98.699219 C 54.75 98.039062 54.195312 97.324219 53.710938 96.550781 C 53.226562 95.773438 52.816406 94.957031 52.484375 94.097656 C 52.148438 93.238281 51.898438 92.347656 51.726562 91.4375 C 51.554688 90.523438 51.46875 89.601562 51.46875 88.667969 C 51.46875 87.738281 51.554688 86.816406 51.726562 85.902344 C 51.898438 84.988281 52.148438 84.101562 52.484375 83.242188 C 52.816406 82.378906 53.226562 81.5625 53.710938 80.789062 C 54.195312 80.015625 54.75 79.296875 55.367188 78.640625 C 55.984375 77.980469 56.65625 77.394531 57.378906 76.875 C 58.105469 76.359375 58.871094 75.921875 59.679688 75.566406 C 60.484375 75.207031 61.316406 74.9375 62.175781 74.757812 C 63.03125 74.574219 63.894531 74.484375 64.769531 74.484375 C 65.640625 74.484375 66.507812 74.574219 67.363281 74.757812 C 68.21875 74.9375 69.050781 75.207031 69.855469 75.566406 C 70.664062 75.921875 71.429688 76.359375 72.15625 76.875 C 72.882812 77.394531 73.554688 77.980469 74.171875 78.640625 C 74.789062 79.296875 75.339844 80.015625 75.824219 80.789062 C 76.308594 81.5625 76.71875 82.378906 77.054688 83.242188 C 77.386719 84.101562 77.640625 84.988281 77.808594 85.902344 C 77.980469 86.816406 78.066406 87.738281 78.066406 88.667969 Z M 78.066406 88.667969 " fill-opacity="1" fill-rule="nonzero"/><g clip-path="url(#b05d62b7a8)"><path fill="#ffffff" d="M 120.617188 134.765625 C 119.996094 134.765625 119.417969 134.441406 119.097656 133.90625 L 113.78125 125.042969 C 113.503906 124.582031 113.449219 124.019531 113.636719 123.515625 C 113.820312 123.011719 114.230469 122.617188 114.738281 122.445312 C 122.472656 119.867188 127.585938 115.539062 130.734375 111.929688 C 122.429688 116.230469 107.070312 122.355469 86.929688 122.355469 C 66.824219 122.355469 51.480469 116.25 43.167969 111.949219 C 46.328125 115.5625 51.4375 119.886719 59.121094 122.445312 C 59.632812 122.617188 60.039062 123.007812 60.222656 123.515625 C 60.410156 124.019531 60.359375 124.582031 60.082031 125.042969 L 54.761719 133.90625 C 54.429688 134.457031 53.792969 134.800781 53.183594 134.765625 C 25.054688 133.859375 13.226562 115.46875 12.734375 114.6875 C 12.558594 114.402344 12.464844 114.078125 12.464844 113.746094 C 12.464844 72.988281 30.421875 39.402344 30.601562 39.066406 C 30.722656 38.84375 30.886719 38.652344 31.085938 38.503906 C 49.300781 24.601562 66.449219 24.828125 67.175781 24.84375 C 67.585938 24.851562 67.980469 25 68.292969 25.269531 L 70.351562 27.042969 C 70.84375 27.460938 71.0625 28.113281 70.933594 28.746094 C 70.804688 29.378906 70.339844 29.886719 69.722656 30.078125 C 61.941406 32.5 55.851562 35.554688 51.285156 38.410156 C 62.566406 34.0625 74.335938 31.933594 86.929688 31.933594 C 99.507812 31.933594 111.257812 34.054688 122.519531 38.390625 C 117.953125 35.535156 111.871094 32.488281 104.132812 30.078125 C 103.515625 29.886719 103.054688 29.378906 102.921875 28.746094 C 102.792969 28.113281 103.015625 27.460938 103.503906 27.042969 L 105.566406 25.269531 C 105.878906 25 106.269531 24.851562 106.683594 24.84375 C 107.40625 24.832031 124.554688 24.601562 142.773438 38.503906 C 142.972656 38.652344 143.136719 38.847656 143.257812 39.066406 C 143.441406 39.402344 161.398438 72.988281 161.398438 113.746094 C 161.398438 114.078125 161.304688 114.402344 161.128906 114.6875 C 160.636719 115.46875 148.804688 133.859375 120.675781 134.765625 C 120.65625 134.765625 120.636719 134.765625 120.617188 134.765625 Z M 117.925781 125.0625 L 121.59375 131.179688 C 144.832031 130.027344 156.007812 115.777344 157.847656 113.199219 C 157.695312 75.710938 142.140625 44.605469 140.3125 41.085938 C 128.410156 32.109375 116.921875 29.476562 110.964844 28.703125 C 128.28125 35.390625 135.835938 44.574219 136.179688 45.003906 C 136.714844 45.664062 136.703125 46.609375 136.15625 47.257812 C 135.605469 47.90625 134.675781 48.078125 133.933594 47.664062 C 119.230469 39.464844 103.855469 35.480469 86.929688 35.480469 C 70.003906 35.480469 54.628906 39.464844 39.921875 47.667969 C 39.183594 48.078125 38.25 47.910156 37.703125 47.261719 C 37.15625 46.609375 37.148438 45.667969 37.679688 45.003906 C 38.019531 44.578125 45.566406 35.402344 62.859375 28.714844 C 56.886719 29.5 45.390625 32.152344 33.546875 41.085938 C 31.722656 44.609375 16.160156 75.753906 16.011719 113.199219 C 17.847656 115.78125 29.027344 130.027344 52.261719 131.179688 L 55.929688 125.066406 C 41.007812 119.238281 35.875 107.613281 35.652344 107.097656 C 35.339844 106.367188 35.550781 105.515625 36.175781 105.015625 C 36.800781 104.519531 37.683594 104.5 38.324219 104.964844 C 38.519531 105.101562 57.773438 118.808594 86.929688 118.808594 C 116.089844 118.808594 135.34375 105.101562 135.53125 104.964844 C 136.179688 104.496094 137.058594 104.515625 137.683594 105.015625 C 138.304688 105.511719 138.519531 106.363281 138.203125 107.097656 C 137.984375 107.613281 132.851562 119.238281 117.925781 125.0625 Z M 117.925781 125.0625 " fill-opacity="1" fill-rule="nonzero"/></g><path fill="#ffffff" d="M 109.09375 104.625 C 100.785156 104.625 94.023438 97.464844 94.023438 88.667969 C 94.023438 79.871094 100.785156 72.710938 109.09375 72.710938 C 117.402344 72.710938 124.164062 79.871094 124.164062 88.667969 C 124.164062 97.464844 117.402344 104.625 109.09375 104.625 Z M 109.09375 76.257812 C 102.738281 76.257812 97.570312 81.824219 97.570312 88.667969 C 97.570312 95.511719 102.738281 101.078125 109.09375 101.078125 C 115.449219 101.078125 120.617188 95.511719 120.617188 88.667969 C 120.617188 81.824219 115.449219 76.257812 109.09375 76.257812 Z M 109.09375 76.257812 " fill-opacity="1" fill-rule="nonzero"/><path fill="#ffffff" d="M 64.769531 104.625 C 56.457031 104.625 49.699219 97.464844 49.699219 88.667969 C 49.699219 79.871094 56.457031 72.710938 64.769531 72.710938 C 73.078125 72.710938 79.839844 79.871094 79.839844 88.667969 C 79.839844 97.464844 73.078125 104.625 64.769531 104.625 Z M 64.769531 76.257812 C 58.414062 76.257812 53.242188 81.824219 53.242188 88.667969 C 53.242188 95.511719 58.414062 101.078125 64.769531 101.078125 C 71.121094 101.078125 76.292969 95.511719 76.292969 88.667969 C 76.292969 81.824219 71.121094 76.257812 64.769531 76.257812 Z M 64.769531 76.257812 " fill-opacity="1" fill-rule="nonzero"/><path fill="#ffffff" d="M 130.371094 53.6875 C 130.222656 53.6875 130.078125 53.652344 129.941406 53.578125 C 129.609375 53.394531 129.273438 53.226562 128.9375 53.0625 L 128.1875 52.683594 C 127.753906 52.457031 127.585938 51.917969 127.8125 51.484375 C 128.039062 51.050781 128.582031 50.882812 129.007812 51.109375 L 129.726562 51.476562 C 130.085938 51.652344 130.441406 51.832031 130.796875 52.027344 C 131.226562 52.265625 131.382812 52.800781 131.144531 53.230469 C 130.984375 53.523438 130.683594 53.6875 130.371094 53.6875 Z M 130.371094 53.6875 " fill-opacity="1" fill-rule="nonzero"/><path fill="#ffffff" d="M 125.050781 50.984375 C 124.925781 50.984375 124.792969 50.957031 124.671875 50.898438 C 121.917969 49.601562 119.046875 48.441406 115.898438 47.351562 C 115.433594 47.191406 115.1875 46.6875 115.347656 46.226562 C 115.507812 45.765625 116.015625 45.519531 116.476562 45.675781 C 119.6875 46.785156 122.617188 47.972656 125.429688 49.296875 C 125.871094 49.503906 126.0625 50.035156 125.851562 50.476562 C 125.703125 50.796875 125.382812 50.984375 125.050781 50.984375 Z M 125.050781 50.984375 " fill-opacity="1" fill-rule="nonzero"/><path fill="#ffffff" d="M 43.492188 53.6875 C 43.179688 53.6875 42.875 53.523438 42.714844 53.230469 C 42.480469 52.800781 42.636719 52.261719 43.066406 52.027344 C 56.816406 44.46875 71.164062 40.796875 86.929688 40.796875 C 95.976562 40.796875 104.46875 42.019531 112.894531 44.53125 C 113.363281 44.671875 113.628906 45.164062 113.492188 45.632812 C 113.351562 46.101562 112.855469 46.375 112.386719 46.230469 C 104.128906 43.765625 95.800781 42.570312 86.929688 42.570312 C 71.472656 42.570312 57.402344 46.171875 43.917969 53.578125 C 43.78125 53.652344 43.636719 53.6875 43.492188 53.6875 Z M 43.492188 53.6875 " fill-opacity="1" fill-rule="nonzero"/></svg>