<svg xmlns="http://www.w3.org/2000/svg" xmlns:xlink="http://www.w3.org/1999/xlink" width="233" zoomAndPan="magnify" viewBox="0 0 174.75 160.499995" height="214" preserveAspectRatio="xMidYMid meet" version="1.0"><defs><clipPath id="9b36807c76"><path d="M 0.148438 0 L 174.355469 0 L 174.355469 160 L 0.148438 160 Z M 0.148438 0 " clip-rule="nonzero"/></clipPath><clipPath id="cbc06f4845"><path d="M 0.148438 0.355469 L 173.714844 0.355469 L 173.714844 159.253906 L 0.148438 159.253906 Z M 0.148438 0.355469 " clip-rule="nonzero"/></clipPath><clipPath id="b251591606"><path d="M 21.890625 6.210938 L 157.46875 6.210938 L 157.46875 141.792969 L 21.890625 141.792969 Z M 21.890625 6.210938 " clip-rule="nonzero"/></clipPath><clipPath id="06cb4552c7"><path d="M 89.679688 6.210938 C 52.242188 6.210938 21.890625 36.5625 21.890625 74.003906 C 21.890625 111.441406 52.242188 141.792969 89.679688 141.792969 C 127.121094 141.792969 157.46875 111.441406 157.46875 74.003906 C 157.46875 36.5625 127.121094 6.210938 89.679688 6.210938 Z M 89.679688 6.210938 " clip-rule="nonzero"/></clipPath><clipPath id="d91ac0acac"><path d="M 18 4 L 159 4 L 159 141.792969 L 18 141.792969 Z M 18 4 " clip-rule="nonzero"/></clipPath></defs><g clip-path="url(#9b36807c76)"><path fill="#ffffff" d="M 0.148438 0 L 174.355469 0 L 174.355469 160 L 0.148438 160 Z M 0.148438 0 " fill-opacity="1" fill-rule="nonzero"/></g><g clip-path="url(#cbc06f4845)"><path fill="#1e0c13" d="M 0.148438 0.355469 L 173.714844 0.355469 L 173.714844 159.253906 L 0.148438 159.253906 Z M 0.148438 0.355469 " fill-opacity="1" fill-rule="nonzero"/></g><g clip-path="url(#b251591606)"><g clip-path="url(#06cb4552c7)"><path fill="#ffffff" d="M 21.890625 6.210938 L 157.46875 6.210938 L 157.46875 141.792969 L 21.890625 141.792969 Z M 21.890625 6.210938 " fill-opacity="1" fill-rule="nonzero"/></g></g><g clip-path="url(#d91ac0acac)"><path fill="#1e0c13" d="M 80.429688 5.289062 C 48.722656 8.804688 22.886719 34.386719 19.0625 66.042969 C 18.816406 68.03125 18.652344 70.027344 18.578125 72.027344 C 18.5 74.03125 18.511719 76.035156 18.605469 78.035156 C 18.699219 80.035156 18.882812 82.03125 19.148438 84.015625 C 19.414062 86.003906 19.765625 87.972656 20.199219 89.929688 C 20.636719 91.886719 21.152344 93.820312 21.753906 95.730469 C 22.355469 97.640625 23.039062 99.523438 23.800781 101.378906 C 24.5625 103.230469 25.402344 105.046875 26.320312 106.828125 C 27.238281 108.609375 28.230469 110.347656 29.300781 112.042969 C 30.367188 113.738281 31.503906 115.386719 32.714844 116.984375 C 33.921875 118.582031 35.199219 120.128906 36.539062 121.617188 C 37.878906 123.105469 39.28125 124.535156 40.746094 125.902344 C 42.207031 127.269531 43.726562 128.574219 45.304688 129.8125 C 46.878906 131.050781 48.503906 132.21875 50.179688 133.320312 C 51.855469 134.417969 53.574219 135.445312 55.339844 136.394531 C 57.101562 137.347656 58.902344 138.222656 60.742188 139.019531 C 62.578125 139.816406 64.449219 140.53125 66.347656 141.167969 C 69.847656 141.726562 70.964844 139.5625 70.964844 137.675781 L 70.964844 125.855469 C 51.601562 130.0625 47.476562 116.492188 47.476562 116.492188 C 44.269531 108.378906 39.714844 106.210938 39.714844 106.210938 C 33.351562 101.875 40.210938 102.019531 40.210938 102.019531 C 47.199219 102.515625 50.90625 109.222656 50.90625 109.222656 C 56.988281 119.847656 67.265625 116.699219 71.25 115.023438 C 71.878906 110.476562 73.722656 107.398438 75.652344 105.652344 C 60.109375 103.90625 43.839844 97.890625 43.839844 71.257812 C 43.839844 63.5 46.496094 57.277344 51.039062 52.3125 C 50.34375 50.566406 47.890625 43.296875 51.738281 33.855469 C 51.738281 33.855469 57.613281 31.964844 70.964844 40.988281 C 76.691406 39.449219 82.515625 38.675781 88.441406 38.675781 C 94.371094 38.675781 100.195312 39.449219 105.917969 40.988281 C 119.28125 31.964844 125.148438 33.855469 125.148438 33.855469 C 128.988281 43.296875 126.542969 50.566406 125.84375 52.3125 C 130.386719 57.261719 133.046875 63.5 133.046875 71.257812 C 133.046875 97.960938 116.683594 103.835938 101.097656 105.582031 C 103.613281 107.75 105.917969 112.015625 105.917969 118.515625 L 105.917969 137.675781 C 105.917969 139.5625 107.039062 141.796875 110.605469 141.167969 C 112.632812 140.488281 114.625 139.71875 116.582031 138.855469 C 118.542969 137.996094 120.453125 137.042969 122.324219 136.007812 C 124.195312 134.96875 126.015625 133.847656 127.78125 132.644531 C 129.546875 131.4375 131.257812 130.15625 132.90625 128.792969 C 134.558594 127.433594 136.140625 126 137.660156 124.492188 C 139.175781 122.988281 140.625 121.414062 141.996094 119.777344 C 143.371094 118.136719 144.667969 116.4375 145.886719 114.679688 C 147.105469 112.921875 148.238281 111.113281 149.292969 109.25 C 150.34375 107.390625 151.308594 105.484375 152.1875 103.53125 C 153.066406 101.582031 153.851562 99.59375 154.546875 97.574219 C 155.242188 95.550781 155.84375 93.5 156.351562 91.421875 C 156.859375 89.34375 157.269531 87.25 157.585938 85.132812 C 157.902344 83.015625 158.121094 80.890625 158.238281 78.757812 C 158.359375 76.621094 158.382812 74.484375 158.308594 72.347656 C 158.230469 70.210938 158.058594 68.082031 157.789062 65.960938 C 157.515625 63.835938 157.148438 61.734375 156.6875 59.644531 C 156.222656 57.558594 155.664062 55.496094 155.011719 53.457031 C 154.359375 51.421875 153.613281 49.417969 152.777344 47.449219 C 151.941406 45.480469 151.015625 43.554688 150.003906 41.671875 C 148.992188 39.789062 147.894531 37.953125 146.714844 36.171875 C 145.53125 34.386719 144.273438 32.664062 142.933594 30.996094 C 141.59375 29.328125 140.179688 27.726562 138.695312 26.1875 C 137.207031 24.648438 135.65625 23.183594 134.035156 21.789062 C 132.414062 20.390625 130.730469 19.074219 128.988281 17.832031 C 127.25 16.589844 125.453125 15.429688 123.605469 14.355469 C 121.757812 13.277344 119.863281 12.289062 117.925781 11.382812 C 115.988281 10.480469 114.011719 9.667969 112 8.945312 C 109.984375 8.222656 107.941406 7.59375 105.871094 7.0625 C 103.800781 6.527344 101.710938 6.085938 99.597656 5.742188 C 97.488281 5.402344 95.367188 5.15625 93.230469 5.007812 C 91.097656 4.859375 88.960938 4.808594 86.824219 4.855469 C 84.6875 4.902344 82.554688 5.046875 80.429688 5.289062 Z M 80.429688 5.289062 " fill-opacity="1" fill-rule="nonzero"/></g></svg>