<svg xmlns="http://www.w3.org/2000/svg" xmlns:xlink="http://www.w3.org/1999/xlink" width="233" zoomAndPan="magnify" viewBox="0 0 174.75 159.750002" height="213" preserveAspectRatio="xMidYMid meet" version="1.0"><defs><clipPath id="4ab86c7fa9"><path d="M 0.0117188 0 L 174.488281 0 L 174.488281 159.5 L 0.0117188 159.5 Z M 0.0117188 0 " clip-rule="nonzero"/></clipPath><clipPath id="025ea893b2"><path d="M 0.0117188 0.265625 L 173.847656 0.265625 L 173.847656 159.410156 L 0.0117188 159.410156 Z M 0.0117188 0.265625 " clip-rule="nonzero"/></clipPath><clipPath id="0c937eee63"><path d="M 30.886719 21.449219 L 143 21.449219 L 143 133.773438 L 30.886719 133.773438 Z M 30.886719 21.449219 " clip-rule="nonzero"/></clipPath></defs><g clip-path="url(#4ab86c7fa9)"><path fill="#ffffff" d="M 0.0117188 0 L 174.488281 0 L 174.488281 159.5 L 0.0117188 159.5 Z M 0.0117188 0 " fill-opacity="1" fill-rule="nonzero"/></g><g clip-path="url(#025ea893b2)"><path fill="#1e0c13" d="M 0.0117188 0.265625 L 173.847656 0.265625 L 173.847656 159.410156 L 0.0117188 159.410156 Z M 0.0117188 0.265625 " fill-opacity="1" fill-rule="nonzero"/></g><path fill="#ffffff" d="M 86.925781 98.34375 C 75.429688 98.34375 66.074219 88.988281 66.074219 77.488281 C 66.074219 65.988281 75.429688 56.636719 86.925781 56.636719 C 98.425781 56.636719 107.78125 65.988281 107.78125 77.488281 C 107.78125 88.988281 98.425781 98.34375 86.925781 98.34375 Z M 86.925781 49.265625 C 71.363281 49.265625 58.703125 61.925781 58.703125 77.488281 C 58.703125 93.050781 71.363281 105.714844 86.925781 105.714844 C 102.488281 105.714844 115.148438 93.050781 115.148438 77.488281 C 115.148438 61.925781 102.488281 49.265625 86.925781 49.265625 " fill-opacity="1" fill-rule="nonzero"/><g clip-path="url(#0c937eee63)"><path fill="#ffffff" d="M 129.964844 44.617188 C 129.964844 46.113281 128.738281 47.339844 127.238281 47.339844 L 119.410156 47.339844 C 117.910156 47.339844 116.683594 46.113281 116.683594 44.617188 L 116.683594 36.785156 C 116.683594 35.289062 117.910156 34.0625 119.410156 34.0625 L 127.238281 34.0625 C 128.738281 34.0625 129.964844 35.289062 129.964844 36.785156 Z M 86.925781 113.695312 C 66.960938 113.695312 50.722656 97.453125 50.722656 77.488281 C 50.722656 57.523438 66.960938 41.285156 86.925781 41.285156 C 106.890625 41.285156 123.132812 57.523438 123.132812 77.488281 C 123.132812 97.453125 106.890625 113.695312 86.925781 113.695312 Z M 124.09375 21.449219 L 49.757812 21.449219 C 39.355469 21.449219 30.886719 29.917969 30.886719 40.320312 L 30.886719 114.65625 C 30.886719 125.0625 39.355469 133.527344 49.757812 133.527344 L 124.09375 133.527344 C 134.5 133.527344 142.964844 125.0625 142.964844 114.65625 L 142.964844 40.320312 C 142.964844 29.917969 134.5 21.449219 124.09375 21.449219 " fill-opacity="1" fill-rule="nonzero"/></g></svg>