<svg xmlns="http://www.w3.org/2000/svg" xmlns:xlink="http://www.w3.org/1999/xlink" width="233" zoomAndPan="magnify" viewBox="0 0 174.75 159.750002" height="213" preserveAspectRatio="xMidYMid meet" version="1.0"><defs><clipPath id="cf4b21a074"><path d="M 0.0117188 0 L 174.488281 0 L 174.488281 159.5 L 0.0117188 159.5 Z M 0.0117188 0 " clip-rule="nonzero"/></clipPath><clipPath id="ebe670ee65"><path d="M 0.0625 0.265625 L 173.898438 0.265625 L 173.898438 159.410156 L 0.0625 159.410156 Z M 0.0625 0.265625 " clip-rule="nonzero"/></clipPath><clipPath id="4be809dbef"><path d="M 30.816406 23.675781 L 143.140625 23.675781 L 143.140625 136 L 30.816406 136 Z M 30.816406 23.675781 " clip-rule="nonzero"/></clipPath><clipPath id="1363134e7e"><path d="M 12.097656 0.265625 L 166.355469 0.265625 L 166.355469 154.523438 L 12.097656 154.523438 Z M 12.097656 0.265625 " clip-rule="nonzero"/></clipPath></defs><g clip-path="url(#cf4b21a074)"><path fill="#ffffff" d="M 0.0117188 0 L 174.488281 0 L 174.488281 159.5 L 0.0117188 159.5 Z M 0.0117188 0 " fill-opacity="1" fill-rule="nonzero"/></g><g clip-path="url(#ebe670ee65)"><path fill="#1e0c13" d="M 0.0625 0.265625 L 173.898438 0.265625 L 173.898438 159.410156 L 0.0625 159.410156 Z M 0.0625 0.265625 " fill-opacity="1" fill-rule="nonzero"/></g><g clip-path="url(#4be809dbef)"><path fill="#ffffff" d="M 30.816406 23.675781 L 143.140625 23.675781 L 143.140625 136 L 30.816406 136 Z M 30.816406 23.675781 " fill-opacity="1" fill-rule="nonzero"/></g><g clip-path="url(#1363134e7e)"><path fill="#1e0c13" d="M 153.640625 0.265625 L 25.078125 0.265625 C 17.96875 0.265625 12.25 6.058594 12.25 13.089844 L 12.25 141.886719 C 12.25 148.992188 18.046875 154.710938 25.078125 154.710938 L 153.5625 154.710938 C 160.671875 154.710938 166.386719 148.917969 166.386719 141.886719 L 166.386719 13.089844 C 166.464844 6.058594 160.746094 0.265625 153.640625 0.265625 Z M 57.914062 127.667969 L 35.121094 127.667969 L 35.121094 59.214844 L 57.914062 59.214844 Z M 46.476562 50.949219 C 39.292969 50.949219 33.5 45.152344 33.5 37.96875 C 33.5 30.785156 39.292969 24.988281 46.476562 24.988281 C 53.664062 24.988281 59.457031 30.785156 59.457031 37.96875 C 59.457031 45.152344 53.664062 50.949219 46.476562 50.949219 Z M 143.671875 127.667969 L 120.804688 127.667969 L 120.261719 87.03125 C 120.261719 87.03125 120.804688 76.214844 108.984375 76.289062 C 97.160156 76.367188 95.539062 87.03125 95.539062 87.03125 L 95.539062 127.667969 L 72.515625 127.667969 L 72.515625 59.214844 L 94.613281 59.214844 L 94.613281 68.640625 C 94.613281 68.640625 95.539062 65.550781 100.636719 61.917969 C 105.738281 58.289062 114.160156 57.515625 117.789062 57.671875 C 121.421875 57.824219 126.367188 57.207031 134.632812 62.925781 C 143.519531 69.027344 143.75 85.019531 143.75 85.019531 Z M 143.671875 127.667969 " fill-opacity="1" fill-rule="nonzero"/></g></svg>